<svg xmlns="http://www.w3.org/2000/svg" width="248" height="30" fill="none" viewBox="0 0 248 30">
  <path fill="#EBFEFF" d="M12.822 10.463c.954.333 1.7.858 2.24 1.573.54.699.81 1.549.81 2.55 0 1.461-.587 2.59-1.763 3.384-1.175.795-2.876 1.192-5.1 1.192H0V2.479h8.532c2.13 0 3.75.397 4.862 1.191 1.113.779 1.669 1.835 1.669 3.17 0 .794-.199 1.51-.596 2.145-.382.62-.93 1.112-1.645 1.478Zm-8.15-4.576v3.217h3.24c1.59 0 2.384-.54 2.384-1.62 0-1.065-.795-1.597-2.383-1.597H4.67Zm3.956 9.867c1.652 0 2.478-.564 2.478-1.693 0-1.128-.826-1.692-2.478-1.692H4.67v3.385h3.957ZM31.688 6.244v12.918h-4.314v-1.383a4.64 4.64 0 0 1-1.716 1.192 5.6 5.6 0 0 1-2.121.405c-1.669 0-3.003-.492-4.004-1.477-.986-.986-1.478-2.463-1.478-4.433V6.244h4.528v6.483c0 .969.183 1.676.548 2.12.366.446.898.668 1.597.668.715 0 1.295-.246 1.74-.739.46-.508.691-1.279.691-2.311v-6.22h4.529ZM48.332 1.478v17.684h-4.314v-1.287c-.842 1-2.105 1.501-3.79 1.501-1.175 0-2.247-.27-3.217-.81-.969-.556-1.74-1.343-2.311-2.36-.556-1.016-.835-2.192-.835-3.527s.279-2.502.835-3.503c.572-1.017 1.342-1.796 2.311-2.336.97-.54 2.042-.81 3.218-.81 1.541 0 2.733.445 3.575 1.334V1.478h4.528Zm-7.15 14.3c.779 0 1.422-.27 1.93-.81.51-.557.763-1.32.763-2.289 0-.953-.254-1.7-.762-2.24-.493-.54-1.136-.81-1.93-.81-.795 0-1.447.27-1.955.81-.509.54-.763 1.287-.763 2.24 0 .97.254 1.732.763 2.288.508.54 1.16.81 1.954.81ZM65.14 6.244v10.558c0 2.4-.651 4.195-1.954 5.387-1.303 1.207-3.178 1.81-5.625 1.81-1.27 0-2.462-.142-3.575-.428-1.112-.286-2.057-.707-2.836-1.263l1.645-3.17c.524.429 1.183.763 1.978 1 .81.255 1.605.382 2.383.382 1.192 0 2.066-.262 2.622-.786.556-.525.834-1.303.834-2.336v-.429c-.874 1.017-2.153 1.525-3.837 1.525a6.72 6.72 0 0 1-3.17-.762 6.013 6.013 0 0 1-2.312-2.193c-.572-.953-.858-2.05-.858-3.289 0-1.223.286-2.304.858-3.241a5.788 5.788 0 0 1 2.312-2.193 6.556 6.556 0 0 1 3.17-.786c1.843 0 3.194.595 4.052 1.787V6.244h4.313Zm-7.293 8.652c.81 0 1.478-.247 2.002-.74.54-.492.81-1.127.81-1.906 0-.778-.261-1.406-.786-1.883-.524-.492-1.2-.739-2.026-.739-.826 0-1.509.247-2.05.74-.524.476-.786 1.104-.786 1.882 0 .779.27 1.414.81 1.907.54.492 1.216.739 2.026.739ZM81.253 12.727c0 .032-.023.405-.071 1.12h-9.39c.19.667.556 1.184 1.096 1.55.556.349 1.247.523 2.073.523.62 0 1.152-.087 1.597-.262.461-.175.922-.46 1.383-.858l2.383 2.479c-1.255 1.398-3.09 2.097-5.505 2.097-1.51 0-2.837-.286-3.98-.858-1.145-.572-2.034-1.366-2.67-2.383-.62-1.017-.93-2.169-.93-3.456 0-1.271.302-2.407.906-3.408a6.468 6.468 0 0 1 2.55-2.383c1.08-.572 2.296-.858 3.647-.858 1.287 0 2.455.27 3.503.81a5.894 5.894 0 0 1 2.479 2.312c.62 1 .93 2.193.93 3.575Zm-6.887-3.48c-.7 0-1.287.199-1.764.596-.46.397-.755.937-.882 1.62h5.291c-.127-.683-.429-1.223-.905-1.62-.461-.397-1.041-.596-1.74-.596ZM92.255 18.637c-.381.239-.85.421-1.406.549-.54.127-1.12.19-1.74.19-1.684 0-2.98-.413-3.885-1.24-.906-.825-1.358-2.057-1.358-3.693v-4.338h-1.883V6.721h1.883V3.36h4.528v3.36h2.955v3.384h-2.955v4.29c0 .46.119.826.357 1.096.255.255.588.382 1.001.382.525 0 .986-.135 1.383-.405l1.12 3.17ZM120.87 6.72h3.075v3.385h-2.956v9.057h-4.528v-9.057h-1.883V6.721h1.883v-.334c0-1.573.469-2.82 1.406-3.742.954-.921 2.28-1.382 3.98-1.382.572 0 1.129.056 1.669.167.54.111.985.278 1.334.5l-1.12 3.194a2.707 2.707 0 0 0-1.358-.381c-.477 0-.85.143-1.12.429-.255.286-.382.707-.382 1.263v.286ZM131.962 19.376c-1.382 0-2.63-.286-3.742-.858-1.112-.572-1.986-1.366-2.621-2.383-.62-1.017-.93-2.169-.93-3.456 0-1.271.31-2.415.93-3.432a6.425 6.425 0 0 1 2.597-2.36c1.113-.571 2.368-.857 3.766-.857 1.398 0 2.653.286 3.766.858 1.112.556 1.978 1.342 2.597 2.36.62 1 .93 2.144.93 3.431s-.31 2.44-.93 3.456c-.619 1.017-1.485 1.811-2.597 2.383-1.113.572-2.368.858-3.766.858Zm0-3.599c.794 0 1.446-.27 1.954-.81.509-.556.763-1.319.763-2.288 0-.953-.254-1.7-.763-2.24-.508-.54-1.16-.81-1.954-.81s-1.446.27-1.954.81c-.509.54-.763 1.287-.763 2.24 0 .97.254 1.732.763 2.288.508.54 1.16.81 1.954.81ZM145.666 7.793a4.14 4.14 0 0 1 1.788-1.31c.747-.302 1.597-.453 2.55-.453v4.075a9.277 9.277 0 0 0-1.025-.071c-.969 0-1.732.262-2.288.786-.54.524-.81 1.327-.81 2.407v5.935h-4.528V6.244h4.313v1.55ZM162.716 19.495c-1.223 0-2.336-.206-3.336-.62-1.001-.428-1.82-1.04-2.455-1.834l2.574-3.051c.889 1.16 1.851 1.74 2.883 1.74.684 0 1.2-.207 1.55-.62.365-.413.548-1.017.548-1.811V6.125h-5.768V2.479h10.439v10.534c0 2.16-.548 3.781-1.644 4.862-1.081 1.08-2.678 1.62-4.791 1.62ZM185.707 6.244v12.918h-4.314v-1.383a4.646 4.646 0 0 1-1.716 1.192 5.604 5.604 0 0 1-2.121.405c-1.669 0-3.003-.492-4.004-1.477-.985-.986-1.478-2.463-1.478-4.433V6.244h4.528v6.483c0 .969.183 1.676.548 2.12.366.446.898.668 1.597.668.715 0 1.295-.246 1.74-.739.461-.508.691-1.279.691-2.311v-6.22h4.529ZM193.318 19.376c-1.08 0-2.144-.119-3.193-.357-1.049-.254-1.891-.58-2.526-.977l1.358-3.099c.588.366 1.287.66 2.097.882a9.72 9.72 0 0 0 2.407.31c.731 0 1.248-.072 1.55-.215.317-.159.476-.38.476-.667 0-.286-.19-.485-.572-.596-.365-.127-.953-.246-1.763-.357-1.033-.127-1.915-.294-2.646-.5a4.072 4.072 0 0 1-1.859-1.145c-.524-.556-.786-1.334-.786-2.335 0-.827.246-1.557.739-2.193.492-.651 1.207-1.16 2.145-1.525.953-.382 2.089-.572 3.408-.572.937 0 1.867.095 2.788.286.922.19 1.692.46 2.312.81l-1.359 3.074a7.53 7.53 0 0 0-3.718-.953c-.715 0-1.239.088-1.572.262-.334.16-.501.374-.501.644 0 .302.183.516.548.643.366.112.969.23 1.811.358 1.065.159 1.947.341 2.646.548a3.92 3.92 0 0 1 1.811 1.144c.525.54.787 1.303.787 2.288 0 .81-.246 1.541-.739 2.193-.493.635-1.223 1.136-2.193 1.501-.953.366-2.105.548-3.456.548ZM210.571 18.637c-.382.239-.85.421-1.406.549a7.594 7.594 0 0 1-1.74.19c-1.684 0-2.979-.413-3.885-1.24-.906-.825-1.359-2.057-1.359-3.693v-4.338h-1.882V6.721h1.882V3.36h4.529v3.36h2.955v3.384h-2.955v4.29c0 .46.119.826.357 1.096.254.255.588.382 1.001.382.525 0 .985-.135 1.383-.405l1.12 3.17ZM212.317 6.244h4.528v12.918h-4.528V6.244Zm2.264-1.43c-.826 0-1.494-.23-2.002-.691a2.224 2.224 0 0 1-.763-1.716c0-.683.255-1.255.763-1.716.508-.46 1.176-.691 2.002-.691.826 0 1.494.222 2.002.667.508.43.763.985.763 1.669 0 .715-.255 1.31-.763 1.787-.508.46-1.176.691-2.002.691ZM226.39 19.376c-1.43 0-2.709-.286-3.837-.858-1.128-.572-2.01-1.366-2.646-2.383-.619-1.017-.929-2.169-.929-3.456s.31-2.43.929-3.432c.636-1.017 1.518-1.803 2.646-2.36 1.128-.571 2.407-.857 3.837-.857 1.462 0 2.725.317 3.789.953 1.065.62 1.82 1.486 2.264 2.598l-3.503 1.787c-.588-1.16-1.446-1.74-2.574-1.74-.81 0-1.486.27-2.026.81-.524.541-.786 1.288-.786 2.241 0 .97.262 1.732.786 2.288.54.54 1.216.81 2.026.81 1.128 0 1.986-.58 2.574-1.74l3.503 1.788c-.444 1.112-1.199 1.986-2.264 2.622-1.064.62-2.327.93-3.789.93ZM247.212 12.727c0 .032-.023.405-.071 1.12h-9.39c.19.667.556 1.184 1.096 1.55.556.349 1.247.523 2.073.523.62 0 1.152-.087 1.597-.262.461-.175.922-.46 1.383-.858l2.383 2.479c-1.255 1.398-3.09 2.097-5.506 2.097-1.509 0-2.836-.286-3.98-.858-1.144-.572-2.033-1.366-2.669-2.383-.62-1.017-.93-2.169-.93-3.456 0-1.271.302-2.407.906-3.408a6.473 6.473 0 0 1 2.55-2.383c1.081-.572 2.296-.858 3.647-.858 1.287 0 2.455.27 3.503.81a5.895 5.895 0 0 1 2.479 2.312c.62 1 .929 2.193.929 3.575Zm-6.887-3.48c-.7 0-1.287.199-1.764.596-.461.397-.755.937-.882 1.62h5.291c-.127-.683-.429-1.223-.906-1.62-.46-.397-1.04-.596-1.739-.596ZM100.068 19.376c-1.088 0-2.16-.12-3.216-.36-1.056-.256-1.904-.584-2.544-.984l1.368-3.12c.592.368 1.296.664 2.112.888a9.784 9.784 0 0 0 2.424.312c.736 0 1.256-.072 1.56-.216.32-.16.48-.384.48-.672 0-.288-.192-.488-.576-.6-.368-.128-.96-.248-1.776-.36-1.04-.128-1.928-.296-2.664-.504a4.097 4.097 0 0 1-1.872-1.152c-.528-.56-.792-1.344-.792-2.352 0-.832.248-1.568.744-2.208.496-.656 1.216-1.168 2.16-1.536.96-.384 2.104-.576 3.432-.576.944 0 1.88.096 2.808.288.928.192 1.704.464 2.328.816l-1.368 3.096a7.584 7.584 0 0 0-3.744-.96c-.72 0-1.248.088-1.584.264-.336.16-.504.376-.504.648 0 .304.184.52.552.648.368.112.976.232 1.824.36 1.072.16 1.96.344 2.664.552a3.952 3.952 0 0 1 1.824 1.152c.528.544.792 1.312.792 2.304a3.57 3.57 0 0 1-.744 2.208c-.496.64-1.232 1.144-2.208 1.512-.96.368-2.12.552-3.48.552Z"/>
  <path fill="#0197A1" d="M81.533 28.869h-2.18l-.386 1H77l2.508-5.738h1.902l2.508 5.738h-2l-.385-1ZM81 27.476l-.557-1.443-.558 1.442H81ZM89.882 24.131v5.738h-1.59l-2.18-2.607v2.607h-1.885V24.13h1.59l2.18 2.607V24.13h1.885ZM93.272 24.131h1.934v5.738h-1.934V24.13ZM101.793 24.131v5.738h-1.59l-2.18-2.607v2.607h-1.885V24.13h1.59l2.18 2.607V24.13h1.885ZM102.725 24.131h1.935v5.738h-1.935V24.13ZM106.837 25.631h-1.68v-1.5h5.295v1.5h-1.681v4.238h-1.934V25.63ZM110.954 24.131h1.935v5.738h-1.935V24.13ZM117.73 28.869h-2.181l-.385 1h-1.967l2.508-5.738h1.902l2.508 5.738h-2l-.385-1Zm-.533-1.393-.558-1.443-.557 1.442h1.115ZM121.381 25.631h-1.68v-1.5h5.295v1.5h-1.68v4.238h-1.935V25.63ZM125.499 24.131h1.934v5.738h-1.934V24.13ZM134.495 24.131l-2.426 5.738h-1.902l-2.426-5.738h2.082l1.369 3.353 1.402-3.353h1.901ZM139.458 28.41v1.459h-4.77V24.13h4.664v1.46h-2.763v.671h2.427v1.394h-2.427v.754h2.869ZM147.251 26.869c.338.126.601.309.786.55.186.24.279.53.279.868 0 .503-.208.893-.623 1.172-.415.273-1.016.41-1.803.41h-3.23V24.13h3.066c.765 0 1.342.137 1.729.41.394.273.591.637.591 1.09 0 .268-.069.508-.205.721a1.41 1.41 0 0 1-.59.517Zm-2.689-1.385v.852h.902c.42 0 .631-.142.631-.426 0-.284-.211-.426-.631-.426h-.902Zm1.164 3.032c.426 0 .639-.15.639-.45 0-.3-.213-.451-.639-.451h-1.164v.901h1.164ZM152.29 27.787v2.082h-1.935v-2.107l-2.164-3.63h2.041l1.173 1.983 1.18-1.984h1.869l-2.164 3.656ZM220.91 27.098c-.109.481-.29.913-.541 1.296l.541.459-.992 1.122-.606-.524a3.468 3.468 0 0 1-1.918.55c-.454 0-.864-.072-1.23-.214-.361-.148-.645-.347-.852-.598a1.302 1.302 0 0 1-.312-.853c0-.36.09-.672.271-.934.18-.268.461-.509.844-.722-.328-.35-.492-.715-.492-1.098 0-.306.085-.574.254-.803.175-.235.418-.418.73-.55a2.767 2.767 0 0 1 1.082-.196c.377 0 .707.06.991.18.29.115.514.284.673.508.158.219.237.473.237.763 0 .29-.082.549-.246.778-.158.224-.407.432-.746.623l.607.517c.098-.219.172-.468.221-.746l1.484.442Zm-3.213-1.868a.442.442 0 0 0-.295.09.306.306 0 0 0-.099.237c0 .072.02.14.058.205.043.066.12.15.229.254.301-.163.451-.327.451-.491a.275.275 0 0 0-.09-.213.365.365 0 0 0-.254-.082Zm-.164 3.393c.218 0 .434-.046.647-.14l-1.049-.901c-.213.153-.319.336-.319.55 0 .141.062.259.188.352.131.093.309.139.533.139Z"/>
  <path fill="#F65940" d="M158.608 30a3.35 3.35 0 0 1-1.222-.213 2.275 2.275 0 0 1-.893-.64l1.041-1.229c.153.191.303.333.451.426.147.093.3.14.459.14.202 0 .355-.06.459-.18.109-.12.164-.298.164-.534v-2.18h-1.951v-1.459h3.86v3.525c0 .781-.202 1.369-.606 1.762-.399.388-.986.582-1.762.582ZM164.609 30c-.879 0-1.565-.238-2.057-.713-.492-.476-.738-1.142-.738-2V24.13h1.935v3.099c0 .42.073.726.221.918.153.19.372.286.656.286.284 0 .5-.095.647-.287.153-.19.23-.497.23-.917V24.13h1.901v3.156c0 .858-.245 1.524-.737 2-.492.475-1.178.713-2.058.713ZM170.43 30c-.475 0-.939-.052-1.393-.156-.448-.109-.817-.254-1.107-.434l.623-1.41c.274.159.58.287.918.385.339.093.664.14.976.14.268 0 .459-.025.574-.074.114-.055.172-.134.172-.238 0-.12-.077-.21-.23-.27a4.65 4.65 0 0 0-.737-.197 8.926 8.926 0 0 1-1.107-.295 1.935 1.935 0 0 1-.77-.525c-.219-.246-.328-.576-.328-.992 0-.36.101-.688.303-.983.202-.295.503-.527.902-.697.404-.17.893-.254 1.467-.254.393 0 .778.044 1.156.131.382.082.718.205 1.008.369l-.582 1.402c-.563-.285-1.096-.427-1.599-.427-.497 0-.746.12-.746.361 0 .115.074.202.222.262.147.055.391.115.729.18.437.083.806.178 1.107.288.3.103.56.276.779.516.224.24.336.568.336.984 0 .36-.101.688-.304.983-.202.29-.505.522-.909.697-.399.17-.886.254-1.46.254ZM174.844 25.631h-1.68v-1.5h5.295v1.5h-1.68v4.238h-1.935V25.63ZM178.961 24.131h1.935v5.738h-1.935V24.13ZM184.794 30a3.517 3.517 0 0 1-1.639-.377 2.917 2.917 0 0 1-1.148-1.066 2.988 2.988 0 0 1-.41-1.557c0-.58.137-1.096.41-1.55a2.84 2.84 0 0 1 1.148-1.065 3.456 3.456 0 0 1 1.639-.385c.558 0 1.055.098 1.492.295.437.197.798.481 1.082.852l-1.221 1.09c-.356-.447-.774-.671-1.254-.671-.405 0-.73.13-.976.393-.246.257-.369.604-.369 1.041 0 .437.123.787.369 1.05.246.256.571.384.976.384.48 0 .898-.224 1.254-.672l1.221 1.09a2.77 2.77 0 0 1-1.082.853c-.437.197-.934.295-1.492.295ZM192.697 28.41v1.459h-4.771V24.13h4.664v1.46h-2.762v.671h2.426v1.394h-2.426v.754h2.869ZM199.097 24.131v5.738h-1.934v-2.115h-1.787v2.115h-1.934V24.13h1.934v2.033h1.787V24.13h1.934ZM202.775 30c-.879 0-1.565-.238-2.057-.713-.492-.476-.738-1.142-.738-2V24.13h1.935v3.099c0 .42.073.726.221.918.153.19.372.286.656.286.284 0 .5-.095.647-.287.153-.19.23-.497.23-.917V24.13h1.901v3.156c0 .858-.245 1.524-.737 2-.492.475-1.178.713-2.058.713ZM211.047 26.869c.339.125.601.309.787.549.186.24.279.53.279.869 0 .503-.208.893-.623 1.172-.415.273-1.016.41-1.803.41h-3.23V24.13h3.066c.765 0 1.341.137 1.729.41.394.273.59.637.59 1.09 0 .268-.068.508-.205.721a1.405 1.405 0 0 1-.59.517Zm-2.688-1.385v.852h.901c.421 0 .632-.142.632-.426 0-.284-.211-.426-.632-.426h-.901Zm1.164 3.032c.426 0 .639-.15.639-.45 0-.301-.213-.451-.639-.451h-1.164v.901h1.164ZM227.05 30a3.517 3.517 0 0 1-1.639-.377 2.914 2.914 0 0 1-1.147-1.066 2.979 2.979 0 0 1-.41-1.557c0-.58.136-1.096.41-1.55a2.837 2.837 0 0 1 1.147-1.065A3.456 3.456 0 0 1 227.05 24c.558 0 1.055.098 1.492.295.437.197.798.481 1.082.852l-1.221 1.09c-.355-.447-.773-.671-1.254-.671-.405 0-.73.13-.976.393-.245.257-.368.604-.368 1.041 0 .437.123.787.368 1.05.246.256.571.384.976.384.481 0 .899-.224 1.254-.672l1.221 1.09a2.77 2.77 0 0 1-1.082.853c-.437.197-.934.295-1.492.295ZM230.183 24.131h1.934v5.738h-1.934V24.13ZM239.18 24.131l-2.427 5.738h-1.901l-2.427-5.738h2.082l1.369 3.353 1.402-3.353h1.902ZM239.372 24.131h1.935v5.738h-1.935V24.13ZM244.377 30c-.475 0-.94-.052-1.393-.156-.448-.109-.817-.254-1.107-.434L242.5 28c.273.159.579.287.918.385.339.093.664.14.975.14.268 0 .459-.025.574-.074.115-.055.172-.134.172-.238 0-.12-.076-.21-.229-.27a4.702 4.702 0 0 0-.738-.197 8.953 8.953 0 0 1-1.106-.295 1.945 1.945 0 0 1-.771-.525c-.218-.246-.328-.576-.328-.992 0-.36.101-.688.304-.983.202-.295.502-.527.901-.697.405-.17.894-.254 1.467-.254a5.1 5.1 0 0 1 1.156.131 3.53 3.53 0 0 1 1.008.369l-.582 1.402c-.563-.285-1.095-.427-1.598-.427-.497 0-.746.12-.746.361 0 .115.074.202.221.262.148.055.391.115.73.18.437.083.806.178 1.106.288.301.103.561.276.779.516.224.24.336.568.336.984 0 .36-.101.688-.303.983-.202.29-.506.522-.91.697-.399.17-.885.254-1.459.254Z"/>
  <path fill="#0197A1" d="M0 28h73v2H0v-2Z"/>
</svg>
