<svg xmlns="http://www.w3.org/2000/svg" width="184" height="184" fill="none" viewBox="0 0 184 184">
  <path fill="url(#a)" d="M92 0C73.8042 0 56.0169 5.39571 40.8876 15.5048 25.7583 25.6139 13.9664 39.9823 7.00312 56.7931.0398623 73.6039-1.78204 92.102 1.7678 109.948c3.54984 17.847 12.312 34.239 25.1784 47.106 12.8664 12.866 29.2593 21.628 47.1055 25.178 17.8463 3.55 36.3443 1.728 53.1553-5.235s31.179-18.755 41.288-33.885C178.604 127.983 184 110.196 184 92c-.026-24.3918-9.728-47.7771-26.975-65.0247C139.777 9.72768 116.392.0263816 92 0Zm8.203 118.55L55.2 136.267c-.6953.288-1.4402.436-2.1926.437-.9366-.009-1.8568-.247-2.6805-.693-.8237-.445-1.5261-1.086-2.046-1.865-.5199-.779-.8416-1.673-.9371-2.605-.0956-.932.0379-1.873.3889-2.741l17.7177-45.0033c.2408-.5822.6214-1.096 1.1081-1.4961.4867-.4 1.0645-.6739 1.6823-.7975.6178-.1235 1.2565-.0929 1.8596.0891.6031.1821 1.1521.51 1.5983.9548l29.7543 29.747c.446.446.776.995.959 1.599.183.604.214 1.244.091 1.863-.124.619-.399 1.198-.8 1.685-.401.488-.916.868-1.5 1.109Zm36.034-63.3117-17.718 44.9577c-.241.584-.622 1.1-1.11 1.501-.489.401-1.068.676-1.688.799-.619.122-1.258.091-1.861-.093-.603-.183-1.151-.512-1.597-.958L82.5164 71.7063c-.4465-.4461-.7759-.9956-.959-1.5996-.183-.604-.2141-1.2439-.0905-1.8628.1236-.619.3982-1.1978.7993-1.6851.401-.4873.9162-.8681 1.4998-1.1085L128.8 47.7327c1.05-.432 2.204-.5437 3.317-.321 1.113.2227 2.135.7698 2.937 1.5724.803.8026 1.35 1.8247 1.573 2.9377.222 1.1129.111 2.2669-.321 3.3165h-.069Z"/>
  <defs>
    <linearGradient id="a" x1="0" x2="67.8542" y1="0" y2="219.848" gradientUnits="userSpaceOnUse">
      <stop stop-color="#00ABB7"/>
      <stop offset=".994792" stop-color="#234A32"/>
    </linearGradient>
  </defs>
</svg>
