<svg xmlns="http://www.w3.org/2000/svg" width="184" height="184" fill="none" viewBox="0 0 184 184"><path fill="url(#a)" d="M67.543 98.057a38.334 38.334 0 0 1 12.267-21.39 53.666 53.666 0 0 1 40.71-13.264 3.679 3.679 0 0 0 3.143-1.303 3.83 3.83 0 0 0 .844-3.297A54.744 54.744 0 0 0 97.06 22.847a71.607 71.607 0 0 0-58.727-4.907A60.184 60.184 0 0 0 7.207 42.473a46.537 46.537 0 0 0-5.827 35.88 53.055 53.055 0 0 0 21.083 30.207 535.073 535.073 0 0 0-4.83 14.49 3.834 3.834 0 0 0 5.444 4.523l12.573-6.67 5.673-3.066a77.555 77.555 0 0 0 24.304 3.22 3.838 3.838 0 0 0 3.545-3.328 3.833 3.833 0 0 0-.172-1.732 38.336 38.336 0 0 1-1.457-17.94Zm7.667-49.374a7.666 7.666 0 0 1 4.983-5.98 7.668 7.668 0 0 1 7.13 1.074 7.667 7.667 0 0 1-1.456 13.11c-1.011.46-2.11.696-3.22.69a7.13 7.13 0 0 1-4.83-1.84 7.206 7.206 0 0 1-2.607-7.054Zm-25.453 3.22a7.668 7.668 0 0 1-4.984 5.214 7.666 7.666 0 0 1-2.53.46 7.206 7.206 0 0 1-4.753-1.764 7.667 7.667 0 0 1-2.683-7.13 7.664 7.664 0 0 1 9.206-6.429 7.666 7.666 0 0 1 5.744 9.65Z"/><path fill="#801200" d="M180.55 103.117a48.15 48.15 0 0 0-22.54-23 60.876 60.876 0 0 0-54.663 0 45.998 45.998 0 0 0-24.687 30.666 39.636 39.636 0 0 0 4.983 29.44 52.969 52.969 0 0 0 35.88 23.537 64.015 64.015 0 0 0 29.594-1.61 81.432 81.432 0 0 1 7.666 4.14c2.224 1.227 4.447 2.53 6.747 3.603a3.898 3.898 0 0 0 1.686 0 3.834 3.834 0 0 0 3.681-4.906 435.5 435.5 0 0 0-3.681-11.577 47.533 47.533 0 0 0 13.877-16.253 39.63 39.63 0 0 0 1.457-34.04Zm-57.193 4.676a7.675 7.675 0 0 1-4.984 5.214 7.688 7.688 0 0 1-2.53.46 7.207 7.207 0 0 1-4.753-1.764 7.663 7.663 0 0 1-2.683-7.13 7.658 7.658 0 0 1 3.202-5.22 7.669 7.669 0 0 1 11.996 5.322 7.675 7.675 0 0 1-.248 3.118Zm32.276 0a7.662 7.662 0 0 1-4.983 5.214 7.693 7.693 0 0 1-2.53.46 7.207 7.207 0 0 1-4.753-1.764 7.664 7.664 0 0 1-2.684-7.13 7.676 7.676 0 0 1 3.203-5.22 7.669 7.669 0 0 1 10.977 2.365 7.655 7.655 0 0 1 .77 6.075Z"/><defs><linearGradient id="a" x1=".043" x2="39.194" y1="13.823" y2="152.176" gradientUnits="userSpaceOnUse"><stop stop-color="#FED349"/><stop offset=".995" stop-color="#F65940"/></linearGradient></defs></svg>