<svg xmlns="http://www.w3.org/2000/svg" width="176" height="176" fill="none" viewBox="0 0 176 176">
  <circle cx="88" cy="88" r="88" fill="#fff"/>
  <path fill="#00ABB7" d="M123 94.6666h-11.667c-.884 0-1.732.3512-2.357.9763-.625.6252-.976 1.473-.976 2.3571 0 .884-.351 1.7319-.976 2.357-.625.625-1.473.976-2.357.976H71.3333c-.884 0-1.7319-.351-2.357-.976C68.3512 99.7319 68 98.884 68 98c0-.8841-.3512-1.7319-.9763-2.3571-.6251-.6251-1.473-.9763-2.357-.9763H53c-1.3261 0-2.5979.5268-3.5355 1.4645C48.5268 97.0688 48 98.3405 48 99.6666v21.6664c0 1.768.7024 3.464 1.9526 4.714 1.2503 1.251 2.946 1.953 4.7141 1.953h66.6663c1.768 0 3.464-.702 4.714-1.953 1.251-1.25 1.953-2.946 1.953-4.714V99.6666c0-1.3261-.527-2.5978-1.464-3.5355-.938-.9377-2.21-1.4645-3.536-1.4645Z"/>
  <path fill="#00ABB7" d="M79.6667 88c-.884 0-1.7319.3512-2.357.9763-.6251.6251-.9763 1.473-.9763 2.357 0 .8841.3512 1.7319.9763 2.3571.6251.6251 1.473.9763 2.357.9763h16.6667c.884 0 1.7319-.3512 2.357-.9763.6251-.6252.9763-1.473.9763-2.3571 0-.884-.3512-1.7319-.9763-2.357-.6251-.6251-1.473-.9763-2.357-.9763H79.6667Z"/>
  <path fill="#F65940" d="M56.3333 84.6666c.8841 0 1.7319-.3512 2.3571-.9763.6251-.6251.9763-1.473.9763-2.357h56.6663c0 .884.352 1.7319.977 2.357.625.6251 1.473.9763 2.357.9763.884 0 1.732-.3512 2.357-.9763.625-.6251.976-1.473.976-2.357 0-1.7681-.702-3.4638-1.953-4.7141-1.25-1.2502-2.946-1.9526-4.714-1.9526H59.6667c-1.7681 0-3.4638.7024-4.7141 1.9526C53.7024 77.8695 53 79.5652 53 81.3333c0 .884.3512 1.7319.9763 2.357.6251.6251 1.473.9763 2.357.9763Zm0-13.3332c.8841 0 1.7319-.3512 2.3571-.9763.6251-.6252.9763-1.473.9763-2.3571h56.6663c0 .8841.352 1.7319.977 2.3571.625.6251 1.473.9763 2.357.9763.884 0 1.732-.3512 2.357-.9763.625-.6252.976-1.473.976-2.3571 0-1.7681-.702-3.4638-1.953-4.714-1.25-1.2502-2.946-1.9526-4.714-1.9526H59.6667c-1.7681 0-3.4638.7024-4.7141 1.9526C53.7024 64.5362 53 66.2319 53 68c0 .8841.3512 1.7319.9763 2.3571.6251.6251 1.473.9763 2.357.9763Zm0-13.3334c.8841 0 1.7319-.3512 2.3571-.9763.6251-.6251.9763-1.473.9763-2.357h56.6663c0 .884.352 1.7319.977 2.357.625.6251 1.473.9763 2.357.9763.884 0 1.732-.3512 2.357-.9763.625-.6251.976-1.473.976-2.357 0-1.7681-.702-3.4638-1.953-4.7141-1.25-1.2502-2.946-1.9526-4.714-1.9526H59.6667c-1.7681 0-3.4638.7024-4.7141 1.9526C53.7024 51.2029 53 52.8986 53 54.6667c0 .884.3512 1.7319.9763 2.357.6251.6251 1.473.9763 2.357.9763Z"/>
</svg>
