<svg version="1.0" xmlns="http://www.w3.org/2000/svg"
 width="64.000000pt" height="64.000000pt" viewBox="0 0 64.000000 64.000000"
 preserveAspectRatio="xMidYMid meet">

<g transform="translate(0.000000,64.000000) scale(0.100000,-0.100000)"
fill="#000000" stroke="none">
<path d="M2 548 c3 -7 21 -14 41 -16 l37 -3 0 -209 0 -209 -37 -3 c-20 -2 -38
-9 -41 -15 -3 -10 62 -13 302 -13 265 0 306 2 306 15 0 11 -11 15 -40 15 l-40
0 0 210 0 210 40 0 c29 0 40 4 40 15 0 13 -41 15 -306 15 -240 0 -305 -3 -302
-12z m188 -228 l0 -210 -40 0 -40 0 0 210 0 210 40 0 40 0 0 -210z m100 0 l0
-210 -40 0 -40 0 0 210 0 210 40 0 40 0 0 -210z m110 0 l0 -210 -40 0 -40 0 0
210 0 210 40 0 40 0 0 -210z m110 0 l0 -210 -40 0 -40 0 0 210 0 210 40 0 40
0 0 -210z"/>
</g>
</svg>