<svg version="1.0" xmlns="http://www.w3.org/2000/svg"
 width="98.000000pt" height="98.000000pt" viewBox="0 0 98.000000 98.000000"
 preserveAspectRatio="xMidYMid meet">

<g transform="translate(0.000000,98.000000) scale(0.100000,-0.100000)"
fill="#000000" stroke="none">
<path d="M457 962 c-13 -14 -17 -38 -17 -90 l0 -72 -109 0 c-94 0 -112 -3
-135 -21 -14 -11 -26 -26 -26 -32 0 -7 -34 -72 -75 -146 -41 -74 -75 -143 -75
-153 0 -35 31 -79 65 -94 44 -18 146 -18 188 0 37 15 66 54 69 88 1 18 -42
103 -129 251 -2 4 48 7 111 7 l116 0 0 -184 c0 -154 -2 -185 -15 -190 -12 -4
-15 -24 -15 -86 l0 -80 -68 0 c-69 0 -92 -10 -92 -40 0 -9 -11 -22 -25 -28
-21 -10 -25 -19 -25 -52 l0 -40 290 0 290 0 0 40 c0 33 -4 42 -25 52 -14 6
-25 19 -25 28 0 30 -23 40 -92 40 l-68 0 0 80 c0 62 -3 82 -15 86 -13 5 -15
36 -15 190 l0 184 116 0 c63 0 113 -3 111 -7 -89 -152 -130 -233 -129 -252 3
-37 29 -71 67 -87 44 -18 146 -18 190 0 34 15 65 59 65 94 0 10 -34 79 -75
153 -41 74 -75 139 -75 146 0 6 -12 21 -26 32 -23 18 -41 21 -135 21 l-109 0
0 73 c0 59 -4 77 -18 90 -24 22 -45 21 -65 -1z m-219 -377 c28 -53 52 -100 52
-105 0 -6 -45 -10 -110 -10 -64 0 -110 4 -110 10 0 12 103 199 110 200 3 0 29
-43 58 -95z m620 -1 c28 -52 52 -99 52 -104 0 -6 -46 -10 -110 -10 -65 0 -110
4 -110 10 0 12 103 200 110 200 3 -1 29 -43 58 -96z"/>
</g>
</svg>
