<svg xmlns="http://www.w3.org/2000/svg" width="184" height="184" fill="none" viewBox="0 0 184 184"><g clip-path="url(#a)"><path fill="url(#b)" d="M93 105.058a7.752 7.752 0 0 0-7.75 7.75v58.125a7.75 7.75 0 1 0 15.5 0v-58.125a7.75 7.75 0 0 0-7.75-7.75Z"/><path fill="url(#c)" d="M58.125 93.371a7.75 7.75 0 0 0-7.75 7.75v42.625a7.748 7.748 0 0 0 7.75 7.75 7.748 7.748 0 0 0 7.75-7.75v-42.625a7.75 7.75 0 0 0-7.75-7.75Z"/><path fill="url(#d)" d="M127.875 93.371a7.75 7.75 0 0 0-7.75 7.75v42.625a7.75 7.75 0 0 0 15.5 0v-42.625a7.751 7.751 0 0 0-7.75-7.75Z"/><path fill="#06464A" d="M16.825 6.548A11.625 11.625 0 0 0 0 16.948v5.465a11.57 11.57 0 0 0 7.308 10.795l7.75 3.1a11.625 11.625 0 0 0-1.627 15.74l5.929 7.75a11.626 11.626 0 0 0 9.3 4.565c2.856.015 5.61-1.07 7.688-3.03l5.479-6.975a3.914 3.914 0 0 0 .798-2.371V23.8a3.875 3.875 0 0 0-1.922-3.348L16.825 6.548Z"/><path fill="url(#e)" d="M134.78 28.659a1.626 1.626 0 0 0-1.666.047L100.82 48.98a14.773 14.773 0 0 1-15.64 0L52.886 28.706a1.635 1.635 0 0 0-2.51 1.395v38.966a9.865 9.865 0 0 0 9.834 9.882h65.58a9.866 9.866 0 0 0 9.835-9.882V30.093a1.643 1.643 0 0 0-.845-1.434Z"/><path fill="url(#f)" d="M125.79 5.324H60.21a9.866 9.866 0 0 0-9.835 9.881.48.48 0 0 0 .233.419l39.788 24.978a4.93 4.93 0 0 0 5.208 0L135.4 15.616a.473.473 0 0 0 .225-.41 9.866 9.866 0 0 0-9.835-9.882Z"/><path fill="#06464A" d="M180.482 7.06a11.623 11.623 0 0 0-11.532-.396l-23.653 13.772a3.873 3.873 0 0 0-1.922 3.364v28.186c0 .864.287 1.703.814 2.388l5.479 6.974a10.943 10.943 0 0 0 7.688 3.03 11.627 11.627 0 0 0 9.3-4.572l5.952-7.804a11.627 11.627 0 0 0-1.651-15.717l7.75-3.1A11.566 11.566 0 0 0 186 22.412v-5.424a11.57 11.57 0 0 0-5.518-9.928Z"/></g><defs><linearGradient id="b" x1="93" x2="93" y1="105.058" y2="178.683" gradientUnits="userSpaceOnUse"><stop stop-color="#06464A"/><stop offset="1" stop-color="#06464A" stop-opacity="0"/></linearGradient><linearGradient id="c" x1="58.125" x2="58.125" y1="93.371" y2="151.496" gradientUnits="userSpaceOnUse"><stop stop-color="#06464A"/><stop offset="1" stop-color="#06464A" stop-opacity="0"/></linearGradient><linearGradient id="d" x1="127.875" x2="127.875" y1="93.371" y2="151.496" gradientUnits="userSpaceOnUse"><stop stop-color="#06464A"/><stop offset="1" stop-color="#06464A" stop-opacity="0"/></linearGradient><linearGradient id="e" x1="50.375" x2="62.066" y1="28.451" y2="92.397" gradientUnits="userSpaceOnUse"><stop stop-color="#00ABB7"/><stop offset=".995" stop-color="#234A32"/></linearGradient><linearGradient id="f" x1="50.375" x2="56.42" y1="5.324" y2="51.675" gradientUnits="userSpaceOnUse"><stop stop-color="#00ABB7"/><stop offset=".995" stop-color="#234A32"/></linearGradient><clipPath id="a"><path fill="#fff" d="M0 0h184v184H0z"/></clipPath></defs></svg>