<svg xmlns="http://www.w3.org/2000/svg" width="184" height="184" fill="none" viewBox="0 0 184 184">
  <g clip-path="url(#a)">
    <path fill="url(#b)" d="M93 105.058c-2.0554 0-4.0267.817-5.4801 2.27-1.4534 1.453-2.2699 3.425-2.2699 5.48v58.125c0 2.055.8165 4.027 2.2699 5.48 1.4534 1.454 3.4247 2.27 5.4801 2.27s4.0267-.816 5.4801-2.27c1.4534-1.453 2.2699-3.425 2.2699-5.48v-58.125c0-2.055-.8165-4.027-2.2699-5.48-1.4534-1.453-3.4247-2.27-5.4801-2.27Z"/>
    <path fill="url(#c)" d="M58.125 93.3713c-2.0554 0-4.0267.8166-5.4801 2.27-1.4534 1.4534-2.2699 3.4246-2.2699 5.4797v42.625c0 2.056.8165 4.027 2.2699 5.48 1.4534 1.454 3.4247 2.27 5.4801 2.27s4.0267-.816 5.4801-2.27c1.4534-1.453 2.2699-3.424 2.2699-5.48v-42.625c0-2.0551-.8165-4.0263-2.2699-5.4797-1.4534-1.4534-3.4247-2.27-5.4801-2.27Z"/>
    <path fill="url(#d)" d="M127.875 93.3713c-2.055 0-4.027.8166-5.48 2.27-1.453 1.4534-2.27 3.4246-2.27 5.4797v42.625c0 2.056.817 4.027 2.27 5.48 1.453 1.454 3.425 2.27 5.48 2.27 2.055 0 4.027-.816 5.48-2.27 1.453-1.453 2.27-3.424 2.27-5.48v-42.625c0-2.0551-.817-4.0263-2.27-5.4797-1.453-1.4534-3.425-2.27-5.48-2.27Z"/>
    <path fill="#801200" d="M16.8253 6.54829c-1.7726-.8866-3.7425-1.30528-5.7225-1.21624-1.97995.08904-3.90429.68282-5.59018 1.72495s-3.07734 2.498-4.04217 4.2293C.505629 13.0176-.00052858 14.9668.00006478 16.9488v5.4637C-.00771527 24.738.685408 27.0119 1.98905 28.9376c1.30364 1.9258 3.1573 3.414 5.31926 4.2707l7.74999 3.1c-2.2083 1.9336-3.6034 4.6309-3.9052 7.5505-.3019 2.9195.5118 5.8453 2.2777 8.1897l5.9288 7.75c1.0917 1.4281 2.4997 2.5836 4.1134 3.3757 1.6136.792 3.389 1.199 5.1866 1.1891 2.8567.0148 5.6096-1.0702 7.688-3.0303l5.4792-6.975c.5184-.6818.7989-1.5149.7983-2.3715V23.7998c.0002-.6774-.1772-1.3429-.5144-1.9304-.3373-.5874-.8226-1.0762-1.4076-1.4176L16.8253 6.54829Z"/>
    <path fill="url(#e)" d="M134.78 28.659c-.256-.1432-.546-.2145-.839-.2063-.294.0082-.579.0955-.827.2528l-32.294 20.274c-2.3458 1.4636-5.0551 2.2396-7.82 2.2396-2.7648 0-5.4741-.776-7.8197-2.2396l-32.2942-20.274c-.2483-.1575-.5345-.2451-.8284-.2536-.2938-.0086-.5846.0623-.8416.2051-.257.1427-.4708.3522-.6188.6062-.148.254-.2248.5433-.2222.8373v38.967c-.0042 2.6139 1.0292 5.1226 2.8731 6.9752 1.844 1.8527 4.3477 2.8979 6.9616 2.9061H125.79c2.614-.0082 5.118-1.0534 6.962-2.9061 1.844-1.8526 2.877-4.3613 2.873-6.9752V30.0927c0-.2925-.079-.5797-.227-.8317-.149-.2521-.362-.4599-.618-.602Z"/>
    <path fill="url(#f)" d="M125.79 5.32397H60.2098c-2.6139.00821-5.1177 1.05339-6.9616 2.90604-1.8439 1.85269-2.8773 4.36129-2.8732 6.97519-.0012.084.0197.1669.0605.2403.0408.0734.1001.1349.1721.1782L90.396 40.602c.7815.4862 1.6836.744 2.604.744.9205 0 1.8225-.2578 2.604-.744L135.4 15.616c.07-.0436.127-.1043.166-.1762.039-.0719.06-.1526.059-.2346.004-2.6139-1.029-5.1225-2.873-6.97519-1.844-1.85265-4.348-2.89783-6.962-2.90604Z"/>
    <path fill="#801200" d="M180.482 7.05972c-1.721-1.06396-3.691-1.66009-5.713-1.72941-2.023-.06932-4.029.39056-5.819 1.33416L145.297 20.4362c-.587.3427-1.074.834-1.411 1.4244-.338.5904-.514 1.2591-.511 1.9391v28.1868c0 .8636.287 1.7029.814 2.387l5.479 6.975c2.068 1.976 4.828 3.0638 7.688 3.0302 1.798.0091 3.574-.3992 5.188-1.1926 1.614-.7934 3.021-1.9503 4.112-3.3799l5.952-7.8042c1.756-2.3456 2.562-5.2679 2.256-8.1822-.306-2.9142-1.701-5.6054-3.907-7.5348l7.75-3.1c2.156-.8577 4.004-2.3434 5.304-4.2644 1.3-1.9209 1.993-4.1884 1.989-6.5081v-5.425c.011-1.9896-.49-3.9485-1.457-5.6876-.967-1.73901-2.365-3.19943-4.061-4.24018Z"/>
  </g>
  <defs>
    <linearGradient id="b" x1="93" x2="93" y1="105.058" y2="178.683" gradientUnits="userSpaceOnUse">
      <stop stop-color="#801200"/>
      <stop offset="1" stop-color="#801200" stop-opacity="0"/>
    </linearGradient>
    <linearGradient id="c" x1="58.125" x2="58.125" y1="93.3713" y2="151.496" gradientUnits="userSpaceOnUse">
      <stop stop-color="#801200"/>
      <stop offset="1" stop-color="#801200" stop-opacity="0"/>
    </linearGradient>
    <linearGradient id="d" x1="127.875" x2="127.875" y1="93.3713" y2="151.496" gradientUnits="userSpaceOnUse">
      <stop stop-color="#801200"/>
      <stop offset="1" stop-color="#801200" stop-opacity="0"/>
    </linearGradient>
    <linearGradient id="e" x1="50.375" x2="62.0658" y1="28.4512" y2="92.3971" gradientUnits="userSpaceOnUse">
      <stop stop-color="#FED349"/>
      <stop offset=".994792" stop-color="#F65940"/>
    </linearGradient>
    <linearGradient id="f" x1="50.375" x2="56.4199" y1="5.32397" y2="51.6755" gradientUnits="userSpaceOnUse">
      <stop stop-color="#FED349"/>
      <stop offset=".994792" stop-color="#F65940"/>
    </linearGradient>
    <clipPath id="a">
      <path fill="#fff" d="M0 0h184v184H0z"/>
    </clipPath>
  </defs>
</svg>
