<svg xmlns="http://www.w3.org/2000/svg" width="184" height="184" fill="none" viewBox="0 0 184 184">
  <g clip-path="url(#a)">
    <path fill="#06464A" d="M72.8333 134.167c0-33.32 21.3977-60.337 63.2807-61.119.498-.004.974-.2029 1.327-.5541.352-.3512.553-.8266.559-1.3242V39.9203c-.001-3.0478-1.211-5.9708-3.366-8.1266L106.206 3.36567C104.05 1.21119 101.128.00065076 98.0797 0H11.5C8.45001 0 5.52494 1.2116 3.36827 3.36827 1.2116 5.52494 0 8.45001 0 11.5v145.667c0 3.05 1.2116 5.975 3.36827 8.131 2.15667 2.157 5.08174 3.369 8.13173 3.369h68.54c.3387 0 .6712-.091.9625-.264.2913-.173.5308-.421.6931-.718.1624-.298.2417-.633.2296-.972-.0121-.338-.1151-.667-.2982-.952-5.7634-9.53-8.8048-20.457-8.7937-31.594ZM46 141.833c-1.5163 0-2.9986-.449-4.2594-1.292-1.2607-.842-2.2434-2.04-2.8237-3.44-.5802-1.401-.7321-2.943-.4363-4.43.2959-1.487 1.026-2.853 2.0982-3.925 1.0723-1.073 2.4383-1.803 3.9255-2.099 1.4872-.296 3.0287-.144 4.4296.437 1.4009.58 2.5983 1.563 3.4407 2.823.8424 1.261 1.2921 2.743 1.2921 4.26 0 2.033-.8078 3.983-2.2455 5.421-1.4378 1.438-3.3879 2.245-5.4212 2.245ZM46 115c-1.5163 0-2.9986-.45-4.2594-1.292-1.2607-.842-2.2434-2.04-2.8237-3.441-.5802-1.401-.7321-2.942-.4363-4.429.2959-1.488 1.026-2.854 2.0982-3.926 1.0723-1.072 2.4383-1.802 3.9255-2.098 1.4872-.2958 3.0287-.144 4.4296.436 1.4009.581 2.5983 1.563 3.4407 2.824s1.2921 2.743 1.2921 4.259c0 2.027-.8025 3.971-2.232 5.408-1.4295 1.437-3.3697 2.249-5.3964 2.259H46Zm0-26.8333c-1.5163 0-2.9986-.4497-4.2594-1.2921-1.2607-.8424-2.2434-2.0398-2.8237-3.4407-.5802-1.4009-.7321-2.9424-.4363-4.4296.2959-1.4872 1.026-2.8532 2.0982-3.9255 1.0723-1.0721 2.4383-1.8023 3.9255-2.0981 1.4872-.2959 3.0287-.144 4.4296.4362 1.4009.5803 2.5983 1.563 3.4407 2.8237.8424 1.2608 1.2921 2.7431 1.2921 4.2594 0 2.0267-.8025 3.971-2.232 5.4076-1.4295 1.4367-3.3697 2.2489-5.3964 2.2591H46ZM57.5 50.6c-1.4158 1.6136-3.1597 2.9064-5.1151 3.7922-1.9553.8858-4.0772 1.3442-6.2239 1.3445-2.1768.0501-4.3388-.3699-6.3385-1.2313-1.9998-.8613-3.7902-2.1439-5.2493-3.7601-1.459-1.6162-2.5523-3.5281-3.2053-5.6053-.653-2.0771-.8504-4.2707-.5786-6.431l3.7567-23.9737c.1425-.902.6022-1.7235 1.2966-2.3166.6943-.5931 1.5776-.9189 2.4907-.9187h15.3334c.9143.0001 1.7984.3269 2.4929.9216.6945.5947 1.1536 1.418 1.2944 2.3214l3.7183 23.851v.115c.2686 2.1245.0858 4.2818-.5364 6.3309-.6223 2.049-1.6699 3.9437-3.0746 5.5601H57.5Z"/>
    <path fill="url(#b)" d="M134.167 184c9.856 0 19.491-2.923 27.686-8.398 8.195-5.476 14.582-13.259 18.354-22.365 3.772-9.106 4.758-19.126 2.836-28.792-1.923-9.667-6.669-18.547-13.639-25.5159-6.969-6.9693-15.848-11.7155-25.515-13.6383-9.667-1.9228-19.687-.936-28.793 2.8358-9.105 3.7718-16.8883 10.159-22.3641 18.3544-5.4757 8.195-8.3984 17.83-8.3984 27.686.0162 13.211 5.2717 25.877 14.6138 35.219 9.3417 9.342 22.0077 14.598 35.2197 14.614Zm-18.331-43.608c-.451-.564-.733-1.244-.814-1.962-.081-.717.042-1.443.356-2.093.313-.651.803-1.199 1.415-1.583.611-.384 1.319-.588 2.04-.587h5.75c.509 0 .996-.202 1.356-.562.359-.359.561-.847.561-1.355v-21.083c0-2.034.808-3.984 2.246-5.422 1.437-1.437 3.387-2.245 5.421-2.245 2.033 0 3.983.808 5.421 2.245 1.438 1.438 2.245 3.388 2.245 5.422v21.083c0 .508.202.996.562 1.355.359.36.847.562 1.355.562h5.75c.723-.002 1.432.201 2.045.585.613.385 1.105.935 1.418 1.587.314.651.436 1.379.354 2.097-.082.719-.366 1.4-.819 1.964l-15.334 19.166c-.372.429-.833.773-1.35 1.009-.517.236-1.079.358-1.647.358-.569 0-1.13-.122-1.647-.358-.518-.236-.978-.58-1.351-1.009l-15.333-19.174Z"/>
  </g>
  <defs>
    <linearGradient id="b" x1="84.3335" x2="121.088" y1="84.3333" y2="203.417" gradientUnits="userSpaceOnUse">
      <stop stop-color="#00ABB7"/>
      <stop offset=".994792" stop-color="#234A32"/>
    </linearGradient>
    <clipPath id="a">
      <path fill="#fff" d="M0 0h184v184H0z"/>
    </clipPath>
  </defs>
</svg>
